 <svg
        width="141"
        height="70"
        viewBox="0 0 141 70"
        fill="none"
        xmlns="http://www.w3.org/2000/svg"
      >
        <g clip-path="url(#clip0_171_6)">
          <path
            d="M28.0605 69.9782C27.8697 69.9142 27.7789 69.7003 27.802 69.3687C27.8283 68.9905 28.1042 68.4633 28.3882 68.2484C28.4471 68.2039 28.4737 68.1986 28.4982 68.2268C28.5226 68.2551 28.4926 68.3088 28.3744 68.4486C28.1889 68.668 28.1289 68.7944 28.1289 68.9662C28.1289 69.0703 28.1455 69.1096 28.2194 69.1818C28.4313 69.3885 28.9256 69.5604 29.3123 69.5618C29.6308 69.563 29.8372 69.4672 29.9536 69.2641C30.0104 69.165 30.1569 68.5817 30.5691 66.8134C30.8666 65.5371 31.1061 64.4795 31.1014 64.4631C31.0967 64.4467 30.9949 64.6767 30.8751 64.9742C30.3453 66.2904 29.7022 67.4265 29.3412 67.6841C29.2116 67.7766 28.9956 67.8183 28.8637 67.7762C28.7058 67.7259 28.5613 67.542 28.5003 67.3137C28.426 67.0356 28.4331 66.3771 28.5158 65.8847C28.8897 63.6598 29.5649 62.3028 30.3494 62.1997C30.6439 62.161 31.1357 62.3571 31.3704 62.6069L31.4973 62.742L31.7558 62.5614C32.0022 62.3893 32.0232 62.3808 32.2025 62.3808C32.3351 62.3808 32.3949 62.3937 32.4051 62.4244C32.4131 62.4484 32.1056 63.819 31.7218 65.4702C31.1898 67.7589 31.0002 68.5285 30.924 68.7084C30.6907 69.2597 30.0726 69.7096 29.284 69.9021C29.0088 69.9692 28.1865 70.0204 28.0605 69.9782ZM29.5753 67.2589C30.0629 66.6968 31.1085 64.3431 31.424 63.0973L31.4665 62.9297L31.3321 62.8158C31.0452 62.5727 30.7226 62.4596 30.5505 62.5419C30.1761 62.721 29.7174 63.9472 29.3981 65.623C29.2737 66.2758 29.2343 66.6354 29.2466 67.0045C29.255 67.2561 29.2653 67.3117 29.3106 67.3499C29.3967 67.4226 29.4488 67.4047 29.5753 67.2589ZM109.181 69.943C109.035 69.8567 108.977 69.743 108.968 69.5196C108.952 69.1401 109.11 68.7365 109.403 68.4101C109.507 68.2941 109.612 68.1992 109.636 68.1992C109.718 68.1992 109.682 68.316 109.566 68.4231C109.406 68.5715 109.291 68.7921 109.291 68.9491C109.291 69.0517 109.309 69.0954 109.387 69.1803C109.49 69.2926 109.869 69.4689 110.112 69.5181C110.475 69.5914 110.535 69.5986 110.6 69.5769C110.638 69.5641 110.72 69.5383 110.783 69.5195C110.944 69.4715 111.077 69.3588 111.148 69.2104C111.211 69.0785 112.277 64.5535 112.264 64.4732C112.259 64.4483 112.201 64.5713 112.133 64.7465C111.545 66.2652 110.846 67.4939 110.441 67.7198C110.185 67.863 109.91 67.7961 109.771 67.5565C109.607 67.2763 109.566 66.6679 109.666 65.9972C109.724 65.6036 109.948 64.5728 109.986 64.5193C110.002 64.498 110.008 64.4727 109.999 64.4633C109.977 64.4375 110.186 63.8162 110.321 63.5062C110.666 62.7147 111.086 62.2595 111.526 62.2012C111.81 62.1636 112.236 62.3297 112.523 62.5896L112.679 62.7306L112.927 62.5569C113.166 62.3897 113.183 62.3832 113.377 62.382C113.561 62.3809 113.579 62.3865 113.579 62.4458C113.579 62.4975 112.61 66.7104 112.451 67.3473C112.429 67.4357 112.36 67.7323 112.297 68.0063C112.234 68.2803 112.154 68.5769 112.119 68.6653C111.871 69.2954 111.132 69.7899 110.201 69.9495C109.793 70.0193 109.306 70.0163 109.181 69.943ZM110.758 67.2461C111.029 66.9104 111.52 65.9666 111.91 65.0328C112.193 64.3537 112.344 63.9352 112.511 63.3613L112.633 62.9434L112.542 62.8559C112.387 62.7065 112.085 62.5399 111.933 62.5191C111.652 62.4807 111.465 62.6867 111.194 63.331C110.85 64.1526 110.459 65.8585 110.413 66.7394C110.395 67.0989 110.413 67.2722 110.477 67.3463C110.551 67.4314 110.632 67.4026 110.758 67.2461ZM77.6985 69.7293C77.4762 69.6131 77.4243 69.3981 77.5817 69.2451C77.714 69.1166 77.8431 69.1399 77.9528 69.3123C78.0465 69.4595 78.1558 69.5493 78.2413 69.5493C78.3285 69.5493 78.4557 69.4056 78.518 69.2366C78.5492 69.1522 78.9035 67.6859 79.3055 65.9781C79.8321 63.7403 80.031 62.8489 80.0174 62.7865C79.9569 62.508 79.5612 62.6665 79.1007 63.1538C78.9837 63.2775 78.898 63.3449 78.8722 63.3334C78.8494 63.3233 78.8308 63.3019 78.8308 63.2859C78.8308 63.2238 79.392 62.6387 79.6182 62.465C79.9426 62.2158 80.1586 62.1174 80.4178 62.1009C80.5815 62.0905 80.6478 62.1001 80.7241 62.1458C80.8441 62.2175 80.9189 62.3817 80.919 62.5737C80.919 62.7411 80.6125 64.0882 80.5797 64.0647C80.5676 64.0561 80.5645 64.0696 80.5729 64.0947C80.5812 64.1198 80.5184 64.4371 80.4333 64.7997C80.3483 65.1624 80.2786 65.4779 80.2786 65.5007C80.2786 65.5585 80.3781 65.4345 80.3826 65.3712C80.3882 65.2922 80.7247 64.4945 80.9728 63.972C81.4657 62.9342 81.8771 62.3403 82.1735 62.2386C82.3685 62.1718 82.465 62.1747 82.6017 62.2518C82.8408 62.3866 82.9331 62.6704 82.9311 63.2648C82.929 63.8974 82.7567 64.8725 82.4903 65.7589C82.1214 66.9864 81.5297 67.7838 80.9835 67.7897C80.6652 67.7932 80.2468 67.617 80.0058 67.378C79.94 67.3127 79.8805 67.2658 79.8736 67.2738C79.8667 67.2818 79.7862 67.5763 79.6947 67.9283C79.6032 68.2803 79.489 68.6578 79.441 68.7671C79.2704 69.1551 78.8989 69.5322 78.5385 69.6833C78.3244 69.7731 77.8337 69.7999 77.6985 69.7293ZM80.8222 67.4318C81.2382 67.2136 81.7001 65.9537 82.0215 64.1602C82.1092 63.6708 82.1248 63.5208 82.1273 63.1416C82.13 62.7174 82.1273 62.6942 82.0676 62.6383C81.9803 62.5565 81.9132 62.5872 81.7659 62.7764C81.2781 63.4028 80.4275 65.3131 80.0246 66.6868C79.9653 66.8893 79.9167 67.0579 79.9167 67.0615C79.9167 67.0894 80.3975 67.4149 80.4861 67.4469C80.6398 67.5025 80.6919 67.5002 80.8222 67.4318ZM6.03272 67.7523C5.98518 67.7189 5.91627 67.6357 5.87959 67.5676C5.82098 67.4588 5.81341 67.4087 5.81713 67.1544C5.82097 66.8901 5.85911 66.7028 6.2585 64.9846C6.49893 63.9503 6.69607 63.0501 6.69659 62.9841C6.69846 62.7448 6.56524 62.7043 6.28623 62.8596C6.08465 62.9717 5.97479 63.0649 5.76508 63.3017C5.6114 63.4753 5.52055 63.5111 5.52055 63.3982C5.52055 63.3236 6.02642 62.7885 6.28416 62.5905C6.75755 62.2268 7.14029 62.1113 7.38602 62.2579C7.55376 62.3579 7.61659 62.4983 7.5993 62.7344C7.59218 62.8317 7.37327 63.8298 7.11284 64.9525C6.8524 66.0752 6.63091 67.0546 6.62063 67.129C6.59517 67.3131 6.62172 67.3955 6.70622 67.3955C7.02883 67.3955 8.19742 64.9687 8.6798 63.297C8.73593 63.1025 8.78916 62.9217 8.7981 62.8952C8.80709 62.8686 8.81897 62.8194 8.82461 62.7857C8.8302 62.7519 8.85429 62.6471 8.87808 62.5526L8.92134 62.3808H9.337C9.56561 62.3808 9.75266 62.3929 9.75266 62.4077C9.75266 62.4225 9.51473 63.4531 9.22391 64.6981C8.93309 65.943 8.69504 66.9909 8.6949 67.0268C8.6949 67.1432 8.77303 67.2348 8.87345 67.2348C9.0262 67.2348 9.33482 67.0315 9.5838 66.7668C9.80147 66.5354 9.86067 66.4999 9.8855 66.5859C9.90287 66.646 9.56982 67.0265 9.27479 67.2835C8.94745 67.5686 8.65373 67.741 8.41463 67.7882C8.17893 67.8348 8.04592 67.8028 7.91975 67.6692C7.8183 67.5618 7.81759 67.5593 7.81968 67.3095C7.82143 67.0948 7.86523 66.8729 8.11899 65.7921C8.28246 65.0959 8.41621 64.5036 8.41621 64.4758C8.41621 64.3812 8.36728 64.4832 8.13532 65.0613C7.55034 66.5192 6.96361 67.5236 6.5749 67.7325C6.38764 67.8331 6.15935 67.8415 6.03272 67.7523ZM10.9614 67.7773C10.8959 67.7601 10.8136 67.7066 10.7678 67.6513C10.701 67.5709 10.6862 67.522 10.6768 67.3527C10.6667 67.1703 10.7131 66.9466 11.1419 65.1078C11.4038 63.9845 11.6181 63.0149 11.6181 62.9531C11.6181 62.8339 11.5508 62.7344 11.4701 62.7344C11.3066 62.7344 10.9216 63.0008 10.6854 63.2773C10.5405 63.4469 10.4487 63.4871 10.4487 63.381C10.4487 63.3069 10.8698 62.8382 11.1258 62.6273C11.376 62.4212 11.7507 62.2182 11.9302 62.1915C12.3341 62.1314 12.5688 62.3594 12.5176 62.7621C12.5093 62.8264 12.2911 63.7931 12.0326 64.9102C11.774 66.0274 11.5624 66.9835 11.5624 67.0349C11.5624 67.0863 11.5854 67.1524 11.6134 67.1816C11.754 67.3285 12.0948 67.1481 12.4966 66.7142C12.6137 66.5877 12.6908 66.5272 12.719 66.5397C12.7843 66.5686 12.7401 66.6391 12.4619 66.9486C11.9041 67.5694 11.3451 67.8782 10.9614 67.7773ZM13.3742 67.7571C13.2146 67.6632 13.1631 67.5514 13.1657 67.3047C13.1687 67.0096 14.6613 60.5609 14.8093 60.203C14.8623 60.0748 14.9177 59.9699 14.9325 59.9699C14.9472 59.9699 14.9593 59.9497 14.9593 59.9249C14.9593 59.8452 15.3731 59.4296 15.5529 59.3286C15.9835 59.0867 16.4327 59.0693 16.68 59.2849C16.7613 59.3557 16.771 59.3802 16.7636 59.4955C16.7544 59.6378 16.6817 59.7239 16.5374 59.7636C16.4677 59.7827 16.4413 59.7636 16.3008 59.5923C16.116 59.3672 16.0738 59.3445 15.9504 59.404C15.8225 59.4657 15.7566 59.6068 15.6558 60.0342C15.6079 60.2375 15.5615 60.4256 15.5527 60.4521C15.5438 60.4786 15.5326 60.5293 15.5278 60.5646C15.523 60.6 15.194 62.0321 14.7967 63.747C14.3995 65.462 14.0658 66.9127 14.055 66.9709C14.0414 67.0451 14.0489 67.1003 14.0804 67.1558C14.189 67.3471 14.5452 67.1878 14.9199 66.7803C15.0477 66.6413 15.1656 66.5276 15.182 66.5276C15.1983 66.5276 15.2192 66.5505 15.2285 66.5785C15.251 66.646 14.938 67.0127 14.6252 67.2857C14.1091 67.7361 13.6392 67.9131 13.3742 67.7571ZM16.2861 67.7661C15.8168 67.575 15.7524 66.724 16.0898 65.1713C16.2537 64.4171 16.371 64.0288 16.5884 63.522C16.9574 62.6615 17.4085 62.188 17.8589 62.188C18.1597 62.188 18.58 62.3732 18.8105 62.6074C18.8997 62.6981 18.9448 62.7263 18.9536 62.697C18.9606 62.6734 19.0797 62.1622 19.218 61.5611C19.5196 60.2509 19.5933 60.0493 19.8997 59.6955C20.2204 59.3252 20.6965 59.1048 21.0908 59.1441C21.269 59.1619 21.4646 59.2579 21.4529 59.322C21.4488 59.345 21.4581 59.3548 21.4737 59.3437C21.4893 59.3325 21.5165 59.3597 21.534 59.4041C21.5801 59.5211 21.5218 59.6626 21.4 59.7294C21.2637 59.804 21.1833 59.7692 21.0696 59.5866C20.9629 59.4151 20.9291 59.3909 20.797 59.392C20.7007 59.3928 20.6152 59.4586 20.5459 59.5854C20.4905 59.6868 18.8259 66.8535 18.8205 67.0137C18.8154 67.1677 18.8678 67.2349 18.9929 67.2345C19.1799 67.2339 19.4437 67.0546 19.7688 66.7071C19.9295 66.5353 19.9988 66.5045 19.9988 66.605C19.9988 66.6725 19.4723 67.2403 19.2575 67.4044C18.863 67.7057 18.5153 67.8435 18.2607 67.7994C18.0215 67.758 17.8882 67.5385 17.9191 67.2369C17.9276 67.1546 18.0735 66.4963 18.2433 65.774C18.4131 65.0518 18.5464 64.4542 18.5394 64.4462C18.5325 64.4381 18.4794 64.5524 18.4215 64.7001C17.7949 66.2981 17.1051 67.5145 16.7057 67.7258C16.5673 67.799 16.4054 67.8146 16.2861 67.7661ZM16.9896 67.2815C17.3058 66.9517 18.0079 65.5364 18.448 64.3417C18.6547 63.7806 18.8851 63.0487 18.8851 62.9531C18.8851 62.9254 18.8068 62.844 18.7111 62.7721C18.0927 62.308 17.8251 62.4379 17.4357 63.3911C17.0276 64.39 16.5985 66.5208 16.6823 67.1326C16.7221 67.4238 16.8116 67.4672 16.9896 67.2815ZM21.1503 67.7761C20.9178 67.7168 20.807 67.4831 20.8586 67.1608C20.8734 67.068 21.0933 66.1003 21.3471 65.0102C21.6009 63.9202 21.8086 62.9911 21.8086 62.9457C21.8086 62.9002 21.7824 62.8327 21.7503 62.7957C21.7035 62.7416 21.6723 62.7327 21.5918 62.7501C21.3937 62.793 21.0286 63.0615 20.8078 63.3265C20.7102 63.4436 20.6565 63.4678 20.6249 63.4088C20.5872 63.3384 21.2246 62.647 21.2865 62.6911C21.3031 62.703 21.3079 62.6971 21.2975 62.6776C21.2867 62.6574 21.367 62.5797 21.4903 62.4909C22.1533 62.0139 22.6991 62.0919 22.6995 62.6637C22.6995 62.81 22.5573 63.527 22.5103 63.6171C22.5014 63.634 22.4913 63.6774 22.4876 63.7135C22.484 63.7496 22.3172 64.4824 22.117 65.3419C21.9167 66.2015 21.7529 66.9563 21.7529 67.0193C21.7529 67.3765 22.122 67.2759 22.6082 66.7861C22.7493 66.644 22.8777 66.5276 22.8935 66.5276C22.9795 66.5276 22.8965 66.6772 22.6763 66.9192C22.0839 67.57 21.54 67.8755 21.1503 67.7761ZM26.1041 67.7826C25.8693 67.7173 25.7762 67.5511 25.7982 67.2369C25.8069 67.1139 25.9987 66.2278 26.258 65.1132C26.7622 62.9464 26.7731 62.8944 26.7602 62.7186C26.7461 62.5271 26.6789 62.5331 26.5053 62.7412C26.3572 62.9186 26.1813 63.1523 26.1959 63.1523C26.2004 63.1523 26.1043 63.3427 25.9824 63.5753C25.8605 63.808 25.7157 64.0971 25.6608 64.2178C25.6043 64.3419 25.5483 64.4283 25.532 64.4167C25.5161 64.4053 25.5111 64.411 25.5209 64.4293C25.5307 64.4476 25.4403 64.6993 25.32 64.9888C24.9603 65.8545 24.6692 66.7393 24.5202 67.4196L24.4692 67.6527H24.0462H23.6232L23.7318 67.1786C23.7915 66.9178 24.0233 65.9233 24.2468 64.9686C24.6722 63.1521 24.7202 62.8831 24.6326 62.8091C24.4736 62.6749 24.1073 62.8818 23.6976 63.3373C23.5749 63.4738 23.507 63.4935 23.507 63.3926C23.507 63.3678 23.5966 63.244 23.7061 63.1176C24.2561 62.4826 24.9385 62.0951 25.2916 62.2172C25.5313 62.3001 25.6328 62.5431 25.5681 62.8791C25.5344 63.054 24.9855 65.4208 24.9628 65.4892C24.9552 65.5123 24.9639 65.5311 24.9813 65.5311C24.9991 65.5311 25.0397 65.4624 25.0715 65.3784C25.6581 63.8284 26.406 62.4834 26.7978 62.2738C27.313 61.9983 27.6681 62.346 27.5731 63.0329C27.5567 63.1513 27.3493 64.0833 27.1122 65.1039C26.8751 66.1246 26.6811 66.9926 26.6811 67.0329C26.6811 67.1341 26.7765 67.2348 26.8723 67.2348C27.0094 67.2348 27.3228 67.0256 27.5582 66.7768C27.7714 66.5515 27.848 66.5027 27.8698 66.5784C27.8753 66.5974 27.7827 66.7252 27.6639 66.8623C27.0978 67.5159 26.4722 67.885 26.1041 67.7826ZM45.2662 67.7695C44.9728 67.6164 44.8354 67.0683 44.9146 66.3669C44.9657 65.9142 44.9724 65.8649 45.0165 65.6211C45.3779 63.6209 46.0557 62.3135 46.7898 62.2009C47.0588 62.1596 47.578 62.3683 47.8322 62.6198C47.8959 62.6829 47.954 62.7344 47.9614 62.7344C47.9688 62.7344 48.0915 62.6549 48.234 62.5576C48.4747 62.3934 48.5057 62.3808 48.6695 62.3808C48.7979 62.3808 48.85 62.3935 48.8613 62.4275C48.8738 62.4652 48.133 65.7465 48.0735 65.9169C48.0642 65.9434 48.054 65.9868 48.0506 66.0133C48.0472 66.0398 47.9989 66.2577 47.9431 66.4974C47.8194 67.0294 47.8145 67.1484 47.9132 67.2232C47.9803 67.2739 47.9941 67.2739 48.134 67.2228C48.3239 67.1537 48.5652 66.9669 48.7596 66.7384C48.9094 66.5623 49.0111 66.5106 49.0111 66.6106C49.0111 66.7432 48.4253 67.3314 48.0551 67.5704C47.5661 67.8861 47.1563 67.8975 46.9875 67.6C46.8919 67.4315 46.9239 67.2134 47.2517 65.8041C47.4203 65.0793 47.5534 64.4805 47.5475 64.4736C47.5416 64.4667 47.4901 64.5824 47.433 64.7308C46.8639 66.2086 46.1452 67.4861 45.7529 67.7172C45.6092 67.8018 45.3763 67.8267 45.2662 67.7693V67.7695ZM46.049 67.2454C46.545 66.6562 47.4647 64.5782 47.856 63.1624L47.9198 62.9313L47.7005 62.7651C47.3532 62.5018 47.2003 62.4603 46.9882 62.5715C46.6849 62.7305 46.3429 63.523 46.0361 64.7778C45.9024 65.3247 45.7698 66.0223 45.7249 66.4153C45.6837 66.775 45.6971 67.269 45.7499 67.3424C45.8179 67.4369 45.9141 67.4056 46.049 67.2454ZM51.9659 67.7816C51.8499 67.7495 51.737 67.6555 51.6914 67.5532C51.6115 67.3738 51.647 67.17 52.0888 65.2673C52.6057 63.0413 52.6361 62.8971 52.6252 62.7244C52.6133 62.5356 52.5522 62.5356 52.3774 62.7241C52.0503 63.077 51.3882 64.4096 50.9189 65.6595C50.7277 66.1689 50.436 67.136 50.3735 67.4677L50.3387 67.6525H49.9097C49.5115 67.6525 49.4818 67.6484 49.4964 67.5955C49.6012 67.2142 50.5424 63.0592 50.5424 62.9778C50.5424 62.5962 50.1244 62.737 49.6031 63.2942C49.4411 63.4673 49.373 63.4967 49.373 63.3936C49.373 63.3423 49.628 63.0349 49.8414 62.829C50.0375 62.6397 50.4254 62.3676 50.6172 62.2848C50.9741 62.1306 51.2878 62.1843 51.3953 62.418C51.4863 62.616 51.4596 62.8 51.1442 64.1487C50.9809 64.847 50.8405 65.4437 50.8322 65.4747C50.8239 65.5056 50.8302 65.5309 50.8464 65.5309C50.8624 65.5309 50.9224 65.4116 50.9796 65.2657C51.3919 64.2146 52.0057 62.9589 52.0809 63.0126C52.0983 63.025 52.102 63.0181 52.09 62.9958C52.0655 62.9499 52.3049 62.5949 52.4814 62.4155C52.7002 62.1932 53.0318 62.1144 53.2187 62.2405C53.3275 62.3138 53.4247 62.496 53.4491 62.6724C53.4794 62.8909 53.419 63.2013 52.9794 65.0894C52.7416 66.1107 52.5471 66.9823 52.5471 67.0262C52.5471 67.1322 52.6399 67.2348 52.735 67.2339C52.8992 67.2324 53.1868 67.032 53.4812 66.714C53.5984 66.5875 53.6754 66.527 53.7036 66.5395C53.769 66.5685 53.7247 66.6389 53.4466 66.9484C52.9007 67.5559 52.324 67.8804 51.9658 67.7814L51.9659 67.7816ZM54.7088 67.7659C54.5582 67.7046 54.4509 67.5744 54.3789 67.3655C54.3251 67.2092 54.3174 67.1277 54.318 66.7205C54.3191 66.1938 54.3597 65.8815 54.5282 65.1132C54.9237 63.3095 55.5382 62.2594 56.2351 62.1964C56.5379 62.1691 56.9813 62.351 57.2316 62.6054C57.3022 62.6771 57.3658 62.7247 57.3729 62.711C57.38 62.6974 57.4579 62.372 57.546 61.9881C57.6341 61.6041 57.7167 61.2974 57.7296 61.3066C57.7426 61.3158 57.746 61.302 57.7373 61.276C57.7188 61.2203 57.8378 60.6904 57.9379 60.3821C58.0237 60.118 58.2339 59.7665 58.413 59.5876C58.6678 59.3331 59.114 59.1363 59.4401 59.1347C59.6225 59.1338 59.8291 59.2198 59.9095 59.33C60.0348 59.502 59.9823 59.6809 59.7865 59.7486C59.6943 59.7805 59.6665 59.7781 59.6071 59.7332C59.5685 59.7039 59.5178 59.6376 59.4946 59.5858C59.4368 59.4568 59.3472 59.3913 59.2284 59.3913C59.1191 59.3913 59.019 59.4877 58.9446 59.6645C58.9222 59.7176 58.7685 60.3499 58.603 61.0697C58.4374 61.7896 58.2915 62.371 58.2788 62.3619C58.266 62.3528 58.2625 62.3665 58.2711 62.3922C58.2796 62.418 58.054 63.4443 57.7696 64.6728C57.4852 65.9014 57.2525 66.9631 57.2525 67.0321C57.2525 67.1876 57.2912 67.2349 57.4182 67.2345C57.612 67.2339 57.8954 67.037 58.2173 66.6793C58.3532 66.5284 58.4219 66.5053 58.4219 66.6106C58.4219 66.688 57.9577 67.1916 57.7136 67.3791C57.2907 67.7039 56.9457 67.8448 56.6838 67.7994C56.4434 67.7578 56.3066 67.523 56.346 67.2196C56.3804 66.9554 56.7959 65.2396 56.8195 65.2645C56.8329 65.2785 56.8349 65.2722 56.824 65.2503C56.8132 65.2285 56.8434 65.0427 56.8911 64.8374C56.9389 64.6321 56.9717 64.4569 56.9641 64.448C56.9564 64.4392 56.9217 64.5093 56.8869 64.6038C56.7728 64.9141 56.3165 65.9591 56.1661 66.2544C55.7794 67.0139 55.3794 67.5911 55.1568 67.711C54.9939 67.7988 54.8369 67.818 54.7088 67.7659ZM55.3986 67.2972C55.8331 66.8568 56.7738 64.8148 57.1949 63.3979C57.2573 63.1882 57.3083 62.9907 57.3083 62.959C57.3083 62.9033 56.9792 62.6379 56.7988 62.5482C56.6926 62.4953 56.487 62.4994 56.3917 62.5563C56.0572 62.756 55.6671 63.7284 55.3604 65.1272C55.1665 66.0115 55.1267 66.2985 55.1245 66.8274C55.1228 67.2635 55.1272 67.3079 55.1767 67.3498C55.2546 67.4158 55.2899 67.4074 55.3986 67.2972ZM59.1794 67.7666C58.9855 67.7155 58.8656 67.641 58.7469 67.4978C58.5279 67.2335 58.7014 66.7526 59.0158 66.7526C59.153 66.7526 59.2215 66.8455 59.2451 67.0631C59.2876 67.4555 59.4548 67.6411 59.7791 67.6559C59.8747 67.6603 59.9614 67.6541 59.9717 67.6422C59.982 67.6303 60.0117 67.6206 60.0378 67.6206C60.0638 67.6206 60.1732 67.5696 60.281 67.5074C60.5839 67.3325 60.7765 67.0465 60.8625 66.6441C60.9052 66.4445 60.9052 66.4149 60.8636 66.2399C60.791 65.9384 60.6444 65.6906 60.2714 65.2386C59.7449 64.6005 59.6034 64.3536 59.5332 63.9502C59.4218 63.3097 59.967 62.4732 60.648 62.2398C60.8505 62.1704 61.2932 62.1707 61.48 62.2403C61.8471 62.3772 62.0473 62.8126 61.8541 63.0542C61.7381 63.1993 61.6439 63.2118 61.543 63.0954C61.4975 63.0428 61.4528 62.9582 61.4436 62.9073C61.3825 62.5667 61.3142 62.4346 61.1612 62.3609C61.0425 62.3036 60.9446 62.3049 60.766 62.3661C60.5042 62.4559 60.3169 62.7094 60.2583 63.0534C60.1884 63.4639 60.3106 63.7427 60.9005 64.5185C61.0887 64.766 61.3038 65.0757 61.3784 65.2066C61.6469 65.6779 61.6911 66.1075 61.5149 66.5354C61.268 67.1351 60.8307 67.5417 60.2405 67.7202C59.9539 67.8069 59.4215 67.8302 59.18 67.7666L59.1794 67.7666ZM76.7148 67.7829C76.4959 67.735 76.3914 67.5698 76.3985 67.283C76.4008 67.1901 76.5807 66.3563 76.8251 65.3061C77.4111 62.7879 77.4229 62.7276 77.3554 62.6059C77.3053 62.5156 77.1368 62.6616 76.9372 62.9684C76.2933 63.9577 75.4874 65.911 75.1702 67.2509L75.0788 67.6366L74.6578 67.6455C74.4262 67.6504 74.2367 67.6488 74.2367 67.642C74.2367 67.6352 74.4629 66.6476 74.7393 65.4473C75.3623 62.7424 75.3834 62.6308 75.2823 62.586C74.9693 62.4473 73.5892 65.3388 73.1784 66.9937C73.1301 67.1882 73.0835 67.369 73.0748 67.3955C73.066 67.4221 73.0544 67.4727 73.0489 67.5081C73.026 67.6542 73.0306 67.6527 72.5949 67.6527C72.3647 67.6527 72.1764 67.6491 72.1764 67.6446C72.1764 67.6401 72.4144 66.6095 72.7054 65.3543C72.9963 64.0991 73.2344 63.0261 73.2344 62.9699C73.2344 62.599 72.8006 62.7468 72.2989 63.2887C72.1721 63.4256 72.1095 63.4737 72.0888 63.4499C72.036 63.3889 72.0922 63.2879 72.31 63.0529C73.2012 62.0913 74.1238 61.9004 74.134 62.6756C74.1363 62.8484 73.5422 65.4717 73.5065 65.4462C73.495 65.438 73.4931 65.4538 73.5021 65.4812C73.5316 65.5699 73.5638 65.5351 73.642 65.3302C73.6842 65.2197 73.8404 64.8472 73.9892 64.5024C74.5624 63.1742 75.0656 62.3806 75.424 62.2396C75.6072 62.1675 75.8099 62.1729 75.9219 62.2528C76.071 62.3592 76.1164 62.5074 76.1139 62.8791C76.1118 63.1809 76.0952 63.2712 75.842 64.3546C75.6098 65.348 75.5609 65.5962 75.6108 65.5284C75.6162 65.5211 75.6861 65.3487 75.7659 65.1454C76.0873 64.3272 76.5512 63.3693 76.8567 62.8931C77.1911 62.3718 77.4172 62.1889 77.7277 62.1883C78.0353 62.1877 78.1772 62.3859 78.1755 62.8136C78.1743 63.1303 78.1807 63.0986 77.7156 65.0971C77.4852 66.0872 77.2979 66.9475 77.2993 67.0089C77.3008 67.0703 77.3232 67.1477 77.3493 67.1809C77.461 67.3234 77.8032 67.1515 78.152 66.7775C78.2802 66.64 78.4039 66.5276 78.4269 66.5276C78.5273 66.5276 78.453 66.666 78.2069 66.9377C77.6645 67.5363 77.0858 67.8642 76.7148 67.7829ZM83.9309 67.7657C83.2382 67.5162 83.0502 66.2908 83.469 64.7564C83.5095 64.6079 83.5507 64.4791 83.5604 64.4703C83.5701 64.4615 83.5823 64.4259 83.5875 64.3914C83.6047 64.2776 83.791 63.8802 83.9498 63.6184C84.5733 62.5909 85.513 61.9964 86.1077 62.2533C86.275 62.3256 86.4711 62.5402 86.566 62.755C86.8027 63.2906 86.7728 64.2341 86.4872 65.2431C86.1374 66.4791 85.3036 67.503 84.4355 67.7627C84.2328 67.8234 84.0931 67.8242 83.9309 67.7657ZM84.6964 67.494C84.7603 67.4606 84.8198 67.4392 84.8287 67.4465C84.8375 67.4538 84.8387 67.4503 84.8312 67.4387C84.8237 67.4271 84.8715 67.351 84.9374 67.2696C85.2407 66.8953 85.4958 66.1858 85.6896 65.1775C85.9499 63.8237 85.9217 62.8192 85.6151 62.5213C85.5438 62.4521 85.5095 62.4409 85.4094 62.4539C84.9128 62.5185 84.4455 63.6198 84.1718 65.3704C84.1218 65.6902 84.1088 65.8935 84.108 66.3669C84.1069 67.0201 84.1375 67.2023 84.2813 67.3996C84.4028 67.5663 84.5114 67.591 84.6964 67.494ZM94.3207 67.7826C94.0976 67.7213 93.8932 67.5189 93.7694 67.2369C93.6353 66.9314 93.6031 66.7368 93.6041 66.2383C93.6056 65.5381 93.7424 64.852 93.9983 64.2614C94.1056 64.0135 94.3611 63.5702 94.3966 63.5702C94.4089 63.5702 94.4265 63.5432 94.4355 63.5102C94.4626 63.4117 94.905 62.9111 95.1515 62.7001C95.5218 62.3832 95.9016 62.188 96.148 62.188C96.4256 62.188 96.6866 62.4364 96.7782 62.7877C96.8276 62.977 96.8608 63.4095 96.8259 63.4095C96.8112 63.4095 96.8044 63.4514 96.8109 63.5025C96.8295 63.6488 96.7174 64.1051 96.585 64.4221C96.2691 65.1785 95.5704 65.8558 94.7569 66.194C94.5192 66.2928 94.4449 66.3891 94.4669 66.5697C94.5035 66.8699 94.5658 67.0538 94.6725 67.1771C94.7687 67.2882 94.7916 67.2991 94.9277 67.2988C95.2036 67.2982 95.5566 67.0494 95.9489 66.5788C96.1594 66.3265 96.2326 66.2737 96.2326 66.3746C96.2326 66.434 95.9401 66.8563 95.7673 67.0463C95.2418 67.6242 94.7166 67.8915 94.3207 67.7826ZM94.6867 66.0458C95.2098 65.7869 95.7192 65.1744 95.9724 64.4999C96.1416 64.0491 96.2091 63.6765 96.1993 63.2488C96.1899 62.8379 96.13 62.6298 95.9907 62.5245C95.6223 62.2458 95.182 62.7628 94.8539 63.8595C94.6803 64.4401 94.518 65.3115 94.4697 65.9236C94.4527 66.1385 94.4744 66.1508 94.6867 66.0458ZM102.311 67.7764C102.233 67.7561 102.166 67.7091 102.109 67.634C101.956 67.4321 101.964 67.3752 102.497 65.0839C102.758 63.9648 102.971 63.0003 102.971 62.9407C102.971 62.7794 102.87 62.7111 102.712 62.765C102.531 62.8266 102.329 62.9715 102.083 63.2171C101.959 63.3406 101.845 63.4416 101.83 63.4416C101.681 63.4416 102.153 62.8743 102.566 62.5576C102.881 62.3154 103.169 62.186 103.396 62.1843C103.601 62.1827 103.684 62.2149 103.778 62.3318C103.841 62.4094 103.848 62.445 103.847 62.6808C103.847 62.917 103.81 63.1041 103.473 64.5405C103.267 65.4188 103.089 66.1305 103.077 66.1219C103.065 66.1134 103.062 66.1268 103.07 66.1518C103.078 66.1768 103.045 66.362 102.997 66.5634C102.949 66.7647 102.911 66.9722 102.913 67.0245C102.927 67.3909 103.334 67.2588 103.838 66.7241C103.94 66.616 104.037 66.5276 104.054 66.5276C104.203 66.5276 103.736 67.0916 103.326 67.407C103.042 67.6247 102.838 67.7326 102.622 67.7788C102.532 67.7978 102.452 67.8119 102.443 67.81C102.435 67.8081 102.375 67.793 102.311 67.7764ZM107.266 67.7826C107.039 67.7193 106.935 67.5342 106.96 67.2349C106.969 67.1376 107.157 66.2769 107.379 65.3222C107.92 62.9988 107.931 62.948 107.921 62.755C107.91 62.5465 107.859 62.5284 107.712 62.6816C107.37 63.0385 106.615 64.5712 106.159 65.8366C105.986 66.3156 105.741 67.1454 105.672 67.4839L105.638 67.6527H105.214H104.789L105.331 65.3113C105.842 63.1075 105.871 62.9643 105.834 62.8763C105.798 62.7909 105.783 62.7828 105.654 62.7838C105.477 62.7851 105.289 62.9088 104.957 63.2423C104.74 63.4609 104.669 63.4987 104.669 63.3962C104.669 63.3211 105.189 62.7718 105.437 62.5853C105.792 62.318 106.03 62.2097 106.27 62.2066C106.487 62.2037 106.595 62.2509 106.682 62.3865C106.8 62.5699 106.784 62.6976 106.49 63.964C106.34 64.6115 106.208 65.1349 106.197 65.1272C106.187 65.1194 106.183 65.1385 106.19 65.1694C106.197 65.2004 106.185 65.2944 106.162 65.3784C106.101 65.6133 106.171 65.5696 106.268 65.3132C106.412 64.9306 106.826 63.9807 106.978 63.6827C107.217 63.2155 107.501 62.7516 107.675 62.5427C108.116 62.0144 108.674 62.077 108.751 62.6633C108.782 62.9044 108.731 63.1694 108.289 65.0644C108.058 66.0542 107.862 66.9169 107.853 66.9816C107.833 67.1254 107.912 67.2348 108.034 67.2348C108.179 67.2348 108.497 67.0203 108.734 66.7634C108.877 66.6075 108.972 66.5274 108.999 66.5393C109.073 66.5721 109.044 66.6287 108.833 66.8683C108.264 67.5153 107.631 67.8842 107.266 67.7826ZM121.904 67.7833C121.398 67.6051 121.15 67.0132 121.19 66.0775C121.207 65.6655 121.291 65.142 121.401 64.7596C121.565 64.1886 121.888 63.6178 122.336 63.1041C122.593 62.8103 122.912 62.5268 122.944 62.564C122.954 62.5752 122.962 62.5666 122.962 62.5448C122.962 62.5231 123.082 62.4396 123.229 62.3594C123.528 62.1958 123.745 62.1523 123.923 62.2203C124.072 62.2769 124.252 62.4804 124.33 62.6789C124.389 62.8305 124.396 62.8908 124.394 63.2969C124.393 63.7022 124.385 63.7742 124.314 64.0202C124.216 64.3639 124.116 64.5931 123.956 64.8444C123.583 65.4273 123.04 65.8821 122.331 66.2051C122.051 66.3323 122.023 66.3841 122.071 66.6922C122.136 67.1172 122.275 67.2991 122.533 67.299C122.798 67.299 123.186 67.0172 123.56 66.5517C123.72 66.3533 123.778 66.2997 123.802 66.3281C123.827 66.3566 123.826 66.3845 123.798 66.4448C123.738 66.575 123.362 67.0586 123.328 67.0499C123.31 67.0455 123.299 67.0564 123.303 67.0741C123.314 67.1238 122.918 67.477 122.71 67.6029C122.412 67.7835 122.102 67.8531 121.904 67.7833ZM122.374 65.9827C123.059 65.5851 123.58 64.7577 123.757 63.7856C123.808 63.5034 123.808 63.045 123.757 62.8473C123.707 62.6562 123.569 62.4849 123.441 62.4573C123.059 62.3746 122.666 62.985 122.366 64.1288C122.202 64.755 122.007 65.9839 122.057 66.0779C122.087 66.1325 122.149 66.1138 122.375 65.9827H122.374ZM125.119 67.7706C124.99 67.7028 124.862 67.5115 124.808 67.307C124.743 67.0625 124.745 66.4077 124.812 65.965C124.876 65.5421 125.051 64.7471 125.176 64.3164C125.523 63.117 126.089 62.2982 126.637 62.2048C126.907 62.1587 127.39 62.3442 127.66 62.5976C127.74 62.6728 127.812 62.7344 127.821 62.7344C127.829 62.7344 127.95 62.6548 128.09 62.5576C128.327 62.3924 128.355 62.3808 128.521 62.3808C128.654 62.3808 128.703 62.3931 128.715 62.429C128.724 62.4555 128.498 63.4801 128.213 64.7059C127.928 65.9316 127.695 66.9873 127.695 67.0518C127.695 67.4029 128.101 67.2826 128.559 66.7958C128.681 66.6659 128.8 66.5597 128.823 66.5597C129.039 66.5597 128.314 67.3386 127.836 67.6199C127.383 67.8856 126.999 67.8789 126.842 67.6025C126.747 67.4346 126.78 67.2108 127.107 65.8048C127.275 65.0803 127.408 64.4819 127.402 64.4751C127.396 64.4682 127.351 64.5693 127.302 64.6995C127.135 65.1386 126.678 66.1555 126.501 66.4793C126.115 67.1866 125.806 67.6141 125.597 67.7285C125.455 67.8062 125.225 67.8265 125.119 67.7706ZM125.903 67.2482C126.252 66.8153 126.857 65.5948 127.272 64.4863C127.45 64.0116 127.66 63.3773 127.732 63.0985L127.774 62.9321L127.554 62.7655C127.206 62.5017 127.054 62.4602 126.842 62.5714C126.477 62.7623 126.04 63.9273 125.719 65.5612C125.554 66.3995 125.502 67.2015 125.603 67.3424C125.673 67.4388 125.775 67.4067 125.903 67.2482ZM133.864 67.7819C133.79 67.7654 133.724 67.7189 133.662 67.6411C133.501 67.4385 133.507 67.401 134.046 65.072C134.502 63.1024 134.579 62.7071 134.521 62.6104C134.358 62.3341 133.42 64.0285 132.816 65.6917C132.623 66.2248 132.474 66.7098 132.347 67.2187L132.243 67.6366L131.819 67.6455C131.423 67.6538 131.395 67.6505 131.409 67.5973C131.45 67.4424 132.358 63.478 132.418 63.1916C132.496 62.8197 132.497 62.5963 132.423 62.5799C132.397 62.5742 132.321 62.6274 132.254 62.6982C131.678 63.3115 130.491 66.1045 130.228 67.4678L130.192 67.6527H129.763C129.355 67.6527 129.335 67.6497 129.351 67.5919C129.377 67.4973 129.809 65.6535 129.827 65.5632C129.835 65.519 129.967 64.9458 130.119 64.2893C130.271 63.6329 130.396 63.0367 130.396 62.9645C130.396 62.5859 129.935 62.7615 129.417 63.3373C129.293 63.4747 129.226 63.4934 129.226 63.3904C129.226 63.3206 129.575 62.9299 129.84 62.7037C129.966 62.5955 130.171 62.4503 130.295 62.3811C130.659 62.1786 130.878 62.1428 131.086 62.252C131.242 62.3339 131.33 62.5396 131.304 62.7625C131.289 62.8839 130.724 65.3607 130.682 65.4909C130.674 65.513 130.683 65.5311 130.7 65.5311C130.718 65.5311 130.778 65.4117 130.834 65.2659C131.118 64.5289 131.697 63.2882 131.798 63.2005C131.819 63.1828 131.835 63.1557 131.835 63.1401C131.833 63.0851 132.164 62.5968 132.294 62.462C132.474 62.2754 132.604 62.2091 132.818 62.1958C133.042 62.1818 133.158 62.2528 133.237 62.4538C133.315 62.6537 133.305 63.1586 133.217 63.4094C133.208 63.436 133.197 63.4866 133.193 63.522C133.178 63.6442 132.783 65.3222 132.766 65.3382C132.739 65.3626 132.735 65.5311 132.761 65.5311C132.773 65.5311 132.811 65.4551 132.846 65.3623C132.952 65.0736 133.415 64.02 133.584 63.6827C133.941 62.9674 134.324 62.4147 134.557 62.2767C134.721 62.1793 135.031 62.1633 135.145 62.2464C135.318 62.3723 135.392 62.7338 135.325 63.1294C135.307 63.2392 135.105 64.1413 134.876 65.1339C134.648 66.1266 134.461 66.9814 134.461 67.0336C134.461 67.0857 134.484 67.1523 134.512 67.1816C134.654 67.3297 134.982 67.154 135.401 66.7061C135.513 66.586 135.59 66.5274 135.618 66.5397C135.683 66.5686 135.638 66.6395 135.361 66.9467C134.985 67.3639 134.5 67.7122 134.221 67.7651C134.013 67.8045 133.973 67.8064 133.864 67.7819ZM136.337 67.7677C136.243 67.7429 136.128 67.7 136.082 67.6725C135.965 67.6029 135.828 67.4383 135.808 67.3428C135.782 67.2246 135.815 67.0012 135.865 66.9595C135.888 66.9394 135.9 66.9144 135.891 66.9038C135.859 66.8667 136.063 66.7528 136.162 66.7527C136.297 66.7523 136.352 66.8311 136.399 67.0897C136.447 67.3574 136.497 67.4677 136.611 67.5617C136.691 67.627 136.734 67.6365 136.953 67.6359C137.175 67.6352 137.224 67.6237 137.39 67.5338C137.634 67.4013 137.809 67.196 137.931 66.8983C138.153 66.3603 138.033 65.9683 137.425 65.2417C136.921 64.6393 136.755 64.3527 136.685 63.9648C136.616 63.575 136.783 63.1013 137.132 62.701C137.477 62.3043 137.786 62.1704 138.305 62.1926C138.568 62.2038 138.611 62.2146 138.749 62.3043C138.837 62.3618 138.937 62.4607 138.985 62.5396C139.142 62.7951 139.078 63.1066 138.856 63.169C138.739 63.202 138.616 63.052 138.581 62.8316C138.522 62.4661 138.34 62.2913 138.058 62.3296C137.748 62.3717 137.51 62.6145 137.425 62.9754C137.317 63.4375 137.416 63.6835 138.038 64.5024C138.42 65.0035 138.531 65.181 138.656 65.4828C138.754 65.7184 138.763 65.7629 138.763 66.0132C138.763 66.2613 138.753 66.3087 138.662 66.5276C138.404 67.1447 137.977 67.5445 137.388 67.7209C137.106 67.8051 136.568 67.829 136.337 67.7677ZM87.9935 67.6798C87.8045 67.5299 87.7191 67.185 87.7665 66.7626C87.7952 66.5068 87.9786 65.3907 88.2434 63.8595C88.3386 63.3091 88.3839 62.9765 88.3714 62.9196C88.3608 62.8712 88.3208 62.8079 88.2826 62.779C88.2222 62.7333 88.1962 62.7317 88.0872 62.767C87.9165 62.8222 87.6751 63.019 87.4875 63.256C87.3762 63.3967 87.3189 63.4467 87.2857 63.432C87.2079 63.3975 87.2321 63.3326 87.4155 63.0845C87.8301 62.5235 88.3186 62.1856 88.7173 62.1841C88.9902 62.1831 89.1261 62.2802 89.2037 62.5314C89.2664 62.7345 89.2513 62.8819 89.0751 63.7831C88.8308 65.0322 88.5247 66.7497 88.5045 66.9845C88.4943 67.1024 88.4995 67.2234 88.5168 67.2749C88.5426 67.3515 88.5619 67.3633 88.6614 67.3633C88.8167 67.3633 88.9392 67.2903 89.0834 67.1114C89.6284 66.4357 90.2257 64.9087 90.3991 63.7479C90.4228 63.5893 90.441 63.2928 90.4395 63.0889C90.438 62.881 90.4509 62.676 90.4687 62.6219C90.5682 62.3201 90.974 62.1056 91.2317 62.2187C91.3496 62.2704 91.3971 62.4217 91.3754 62.676C91.3545 62.9212 91.1582 64.068 90.8602 65.6857C90.651 66.8217 90.6071 67.1764 90.6613 67.2933C90.7368 67.456 91.0916 67.3263 91.2507 67.0778C91.2851 67.0241 91.3269 66.9891 91.3436 67.0001C91.3603 67.0111 91.3658 67.0094 91.3557 66.9964C91.3456 66.9835 91.4179 66.8357 91.5164 66.6681C91.9453 65.9376 92.3822 64.7197 92.5273 63.8498C92.5672 63.6103 92.5852 63.3752 92.5852 63.0914C92.5852 62.7229 92.5919 62.6655 92.65 62.5385C92.7329 62.3573 92.9234 62.2164 93.1139 62.1952C93.2805 62.1767 93.3729 62.2344 93.4409 62.3991C93.4959 62.5322 93.4748 62.6839 93.3186 63.28C92.9997 64.4967 92.4484 65.6794 91.7338 66.6802C91.6169 66.844 91.5084 66.968 91.4922 66.9565C91.476 66.9449 91.471 66.9507 91.4811 66.9696C91.504 67.0124 91.1578 67.3851 90.9371 67.5552C90.7427 67.7051 90.6243 67.7487 90.4103 67.7489C90.2791 67.7489 90.2424 67.7357 90.1819 67.6659C90.1423 67.6202 90.0936 67.5297 90.0737 67.465C90.0195 67.2885 90.0374 66.828 90.1182 66.3207C90.1575 66.0743 90.1861 65.8687 90.1819 65.8638C90.1777 65.8589 90.0842 65.9954 89.9741 66.1671C89.5542 66.8223 89.0324 67.4201 88.7011 67.6257C88.5623 67.7118 88.4963 67.7315 88.3113 67.7422C88.1128 67.7538 88.0782 67.747 87.9935 67.6798ZM0.0152594 67.5499C0.0237 67.4915 0.0439349 67.4039 0.0602131 67.3553C0.0893604 67.2683 0.0935589 67.2669 0.331681 67.2669C0.632461 67.2669 0.777189 67.1865 0.86599 66.97C0.936255 66.7987 2.15156 61.5542 2.15156 61.4222C2.15156 61.3539 2.12654 61.3014 2.0659 61.2425C1.98838 61.1672 1.95763 61.1593 1.74261 61.1593H1.50498L1.52447 61.0393C1.56595 60.784 1.42678 60.8057 3.02854 60.8057C4.3874 60.8057 4.46795 60.8089 4.60765 60.8693C5.0238 61.0492 5.21532 61.527 5.13054 62.1739C5.0894 62.4878 4.97288 62.8646 4.83715 63.1225C4.73246 63.3215 4.45679 63.6694 4.31238 63.7849L4.23183 63.8493L4.3595 63.9207C4.62669 64.07 4.81727 64.3767 4.87995 64.7583C4.91426 64.9672 4.91687 65.3382 4.88401 65.3382C4.87081 65.3382 4.86523 65.3707 4.8716 65.4105C4.88982 65.5242 4.74863 66.0379 4.62795 66.2969C4.42632 66.7297 4.15124 67.0837 3.83538 67.317C3.74792 67.3816 3.66218 67.4372 3.64484 67.4406C3.62749 67.444 3.58823 67.4627 3.5576 67.482C3.52698 67.5014 3.43301 67.5435 3.34878 67.5757C3.20938 67.6289 3.0524 67.6352 1.59776 67.6451L-0.00012207 67.6561L0.0152594 67.5499ZM3.15884 67.1151C3.48288 66.9296 3.73759 66.6227 3.91741 66.201C4.29857 65.3071 4.21441 64.4984 3.71271 64.2337C3.59895 64.1736 3.52206 64.1653 2.98685 64.1551L2.38822 64.1436L2.03187 65.6812C1.83589 66.5268 1.67613 67.2305 1.67687 67.245C1.67797 67.2595 1.95802 67.2667 2.29997 67.2611L2.92172 67.2508L3.15884 67.1151ZM3.59429 63.6846C4.02104 63.459 4.36517 62.7484 4.3999 62.0209C4.41384 61.7287 4.40998 61.6978 4.33914 61.5306C4.28107 61.3935 4.23324 61.3315 4.1333 61.2637C4.00776 61.1785 3.98671 61.175 3.54371 61.1648L3.0843 61.1542L2.78447 62.4506C2.61957 63.1636 2.48488 63.7593 2.48516 63.7743C2.48516 63.7894 2.69554 63.7962 2.95205 63.7896C3.39611 63.7781 3.42683 63.7731 3.59429 63.6846ZM35.2733 67.6255C35.2558 67.5928 35.3077 67.3621 35.3444 67.3102C35.3596 67.2886 35.4787 67.2684 35.6291 67.2619C35.8628 67.2519 35.8977 67.242 35.9916 67.1592C36.0488 67.1089 36.1138 67.0221 36.136 66.9664C36.1583 66.9107 36.4593 65.6433 36.8049 64.15C37.4237 61.476 37.4325 61.4334 37.3892 61.3285C37.3336 61.1938 37.2535 61.1593 36.9967 61.1593C36.8838 61.1593 36.785 61.1474 36.7773 61.1329C36.7695 61.1184 36.7796 61.0425 36.7996 60.9641L36.836 60.8217L38.2658 60.8134C39.8986 60.8039 39.8881 60.8026 40.1223 61.0456C40.3313 61.2626 40.3922 61.4473 40.393 61.8665C40.393 62.0521 40.3831 62.2619 40.3704 62.3326C40.2709 62.8813 40.0062 63.3775 39.625 63.7293L39.4967 63.8477L39.6471 63.9386C39.8363 64.053 39.9982 64.2634 40.0772 64.4977C40.1707 64.7747 40.1815 65.2726 40.1021 65.6464C39.9382 66.4184 39.4809 67.1076 38.918 67.4309C38.5532 67.6404 38.457 67.6503 36.7688 67.6515C35.9543 67.6522 35.2813 67.6405 35.2733 67.6255ZM38.2399 67.2038C38.5495 67.0933 38.8375 66.8388 39.0338 66.5021C39.0926 66.4012 39.1533 66.308 39.1686 66.295C39.1839 66.282 39.1879 66.2712 39.1774 66.2709C39.1669 66.2705 39.1941 66.1792 39.2379 66.0676C39.3593 65.7586 39.4115 65.4852 39.408 65.1775C39.4023 64.6824 39.2696 64.3912 38.982 64.2424C38.8447 64.1714 38.7939 64.1653 38.2439 64.1547L37.6533 64.1433L37.6212 64.2903C37.6036 64.3712 37.5782 64.4295 37.5648 64.42C37.5515 64.4104 37.5475 64.4236 37.5561 64.4493C37.5674 64.4834 37.1005 66.569 36.9379 67.2107C36.9246 67.2629 36.9639 67.2669 37.4933 67.2669C37.981 67.2669 38.0885 67.2578 38.2399 67.2038ZM38.6591 63.7591C38.8673 63.7081 39.004 63.62 39.1519 63.4414C39.4103 63.1293 39.5969 62.6529 39.656 62.1548C39.7178 61.6336 39.5916 61.3224 39.2661 61.194C39.1739 61.1576 38.3812 61.1415 38.3518 61.1754C38.3424 61.1864 37.7389 63.7429 37.7354 63.7872C37.7333 63.8134 38.537 63.789 38.6591 63.7591ZM40.9088 67.6326C40.9088 67.6018 41.8548 63.5286 41.8747 63.4737C41.8843 63.4472 41.8908 63.4169 41.8892 63.4064C41.8875 63.3958 41.9043 63.3176 41.9265 63.2325C42.0021 62.9427 41.9573 62.7665 41.8081 62.7665C41.633 62.7665 41.2457 63.0298 41.0073 63.3108C40.8633 63.4806 40.8142 63.5063 40.7875 63.426C40.762 63.3492 41.2052 62.8546 41.5321 62.5952C41.7192 62.4467 42.0721 62.2582 42.2371 62.2187C42.458 62.1657 42.6188 62.202 42.7422 62.3325C42.8426 62.4388 42.8439 62.4433 42.8439 62.6917C42.8439 62.9003 42.8136 63.0724 42.6666 63.6988C42.5691 64.1142 42.4782 64.459 42.4646 64.465C42.451 64.4709 42.4469 64.4889 42.4555 64.5049C42.464 64.521 42.4184 64.7587 42.354 65.0331C42.2895 65.3075 42.245 65.5414 42.255 65.5529C42.2813 65.5834 42.2785 65.5906 42.4495 65.0608C42.76 64.099 43.0737 63.3444 43.3898 62.7987C43.6589 62.3343 43.8466 62.1877 44.1718 62.188C44.5218 62.1884 44.6636 62.6012 44.5419 63.2648C44.4823 63.5895 44.4874 63.7166 44.5625 63.7773C44.6529 63.8504 44.7012 63.8402 44.8643 63.7134C44.9979 63.6096 45.0853 63.5886 45.0853 63.6602C45.0853 63.6754 44.9926 63.7917 44.8793 63.9185C44.6076 64.2227 44.3768 64.3526 44.0829 64.3669C43.912 64.3752 43.858 64.3654 43.7851 64.3127C43.5693 64.1565 43.5487 63.9449 43.6882 63.3172C43.815 62.7471 43.8046 62.5194 43.6554 62.5978C43.468 62.6964 43.044 63.6165 42.5225 65.0562C42.3898 65.4227 42.2763 65.7168 42.2702 65.7098C42.2642 65.7029 42.2573 65.7285 42.2549 65.7668C42.2525 65.8051 42.155 66.1619 42.0383 66.5597C41.9217 66.9575 41.8068 67.3662 41.7832 67.4678L41.7402 67.6527H41.3245C41.0959 67.6527 40.9088 67.6436 40.9088 67.6326ZM61.7823 67.6156C61.698 67.5611 61.7318 67.4844 61.958 67.2168C62.148 66.992 62.1808 66.9372 62.1808 66.844C62.1808 66.7839 62.1639 66.7062 62.1433 66.6713C62.0481 66.51 62.0716 66.3276 62.213 66.1296C62.5093 65.715 63.0421 65.8777 62.9295 66.3484C62.8637 66.6236 62.4493 67.1791 62.0972 67.4641C61.8832 67.6373 61.8447 67.6559 61.7823 67.6156ZM66.6461 67.6058C66.6273 67.5489 66.6873 67.3244 66.7302 67.2915C66.7471 67.2785 66.8585 67.2677 66.9778 67.2674C67.2251 67.2669 67.3732 67.2004 67.4674 67.0476C67.5302 66.9458 68.7795 61.6105 68.7795 61.4441C68.7795 61.3798 68.7521 61.3155 68.6982 61.2532C68.6207 61.1638 68.6051 61.1593 68.3745 61.1593H68.1322L68.1476 61.0709C68.156 61.0222 68.1761 60.9427 68.1921 60.8941L68.2213 60.8057H70.111C71.9063 60.8057 72.003 60.8086 72.0468 60.8644C72.0985 60.9304 72.1066 61.21 72.0746 61.8147L72.0564 62.1587L71.9011 62.1492L71.7459 62.1397L71.6819 61.8022C71.6158 61.4539 71.5736 61.3553 71.4418 61.2416C71.3698 61.1795 71.3214 61.1747 70.6687 61.1657L69.9724 61.1561L69.8533 61.2367C69.7877 61.2811 69.7129 61.3546 69.6871 61.4001C69.6452 61.4739 69.1136 63.6864 69.1136 63.7868C69.1136 63.818 69.2395 63.8273 69.6617 63.8273C70.1633 63.8273 70.2201 63.8216 70.3318 63.7592C70.482 63.6752 70.571 63.5238 70.6317 63.2487C70.6571 63.1338 70.6908 63.0217 70.7066 62.9996C70.7329 62.9629 71.007 62.9398 71.007 62.9743C71.007 62.9826 70.9005 63.4447 70.7703 64.0013C70.6401 64.558 70.5336 65.0214 70.5336 65.0311C70.5336 65.0409 70.4647 65.0489 70.3805 65.0489C70.2891 65.0489 70.2274 65.0348 70.2274 65.014C70.2274 64.9949 70.2525 64.8658 70.2831 64.7271C70.3438 64.4526 70.3343 64.3723 70.2277 64.2613C70.1708 64.2021 70.1201 64.1962 69.5856 64.1872L69.0053 64.1774L68.9779 64.2997C68.8427 64.9038 68.7936 65.0986 68.7741 65.1079C68.7616 65.1138 68.7577 65.1304 68.7653 65.1448C68.773 65.1592 68.6917 65.5543 68.5845 66.0228C68.4774 66.4913 68.3897 66.9274 68.3897 66.9919C68.3897 67.0735 68.4105 67.1331 68.458 67.188L68.5264 67.2669H69.2063C70.1268 67.2669 70.1392 67.2613 70.5362 66.6647C70.6629 66.4744 70.7799 66.308 70.7962 66.295C70.8432 66.2576 71.0904 66.2661 71.0904 66.3051C71.0904 66.3242 70.9688 66.6083 70.8201 66.9365C70.5673 67.4946 70.5425 67.5371 70.4373 67.5922C70.3318 67.6475 70.2098 67.6513 68.4932 67.6519C66.9135 67.6526 66.6596 67.6462 66.6461 67.6058ZM97.5134 67.6388C97.5134 67.6311 97.7514 66.6005 98.0424 65.3484C98.3333 64.0963 98.5714 63.0271 98.5714 62.9724C98.5714 62.8607 98.4988 62.7665 98.4126 62.7665C98.2403 62.7665 97.9198 62.982 97.6356 63.2889C97.4525 63.4867 97.402 63.5124 97.402 63.4079C97.402 63.3236 97.7329 62.9453 98.0265 62.6939C98.6532 62.1575 99.2264 62.0421 99.4168 62.4142C99.51 62.5963 99.4797 62.8027 99.1552 64.196C98.9865 64.9203 98.856 65.535 98.8652 65.5621C98.8749 65.591 98.943 65.418 99.0291 65.1453C99.4328 63.8669 99.953 62.7236 100.284 62.3874C100.358 62.3122 100.46 62.245 100.533 62.2238C100.967 62.0977 101.187 62.302 101.188 62.8308C101.188 62.9634 101.17 63.1587 101.147 63.2648C101.086 63.5573 101.092 63.7169 101.167 63.7773C101.257 63.8504 101.306 63.8402 101.469 63.7134C101.605 63.6077 101.69 63.5887 101.69 63.6638C101.69 63.6811 101.608 63.7892 101.509 63.9042C101.255 64.1972 100.977 64.3542 100.689 64.3674C100.517 64.3753 100.462 64.3653 100.39 64.3127C100.174 64.157 100.156 63.9586 100.295 63.3138C100.383 62.9026 100.405 62.6264 100.351 62.5878C100.291 62.545 100.179 62.6556 100.043 62.8939C99.8753 63.1869 99.4668 64.1206 99.2804 64.6369C99.2059 64.8435 99.1329 65.004 99.1183 64.9936C99.1037 64.9832 99.1 64.99 99.1101 65.0088C99.1202 65.0276 99.0356 65.3155 98.9223 65.6486C98.7358 66.1966 98.5067 66.9812 98.391 67.4678L98.3471 67.6527H97.9303C97.701 67.6527 97.5134 67.6464 97.5134 67.6388ZM117.276 67.6354C117.256 67.6124 117.309 67.3601 117.345 67.3071C117.363 67.281 117.449 67.2669 117.592 67.2669C117.715 67.2669 117.853 67.2476 117.903 67.2231C118.013 67.1702 118.129 67.0174 118.169 66.8739C118.186 66.816 118.475 65.5753 118.813 64.1167C119.235 62.2956 119.422 61.4371 119.41 61.3766C119.379 61.2128 119.28 61.1593 119.009 61.1593C118.577 61.1593 118.426 61.2659 118.061 61.8299L117.853 62.1528L117.706 62.1543C117.622 62.1552 117.56 62.1415 117.56 62.1218C117.56 62.1032 117.673 61.8293 117.811 61.5133C118.015 61.0478 118.08 60.926 118.156 60.8722C118.247 60.8068 118.278 60.8057 120.016 60.8057C121.693 60.8057 121.786 60.8087 121.83 60.8645C121.868 60.9136 121.875 60.9968 121.873 61.3707C121.872 61.6169 121.863 61.8906 121.853 61.979L121.834 62.1397L121.688 62.1494C121.517 62.1608 121.523 62.1724 121.443 61.7252C121.362 61.2706 121.244 61.1593 120.844 61.1593C120.401 61.1593 120.318 61.2646 120.134 62.0614C120.061 62.3769 119.991 62.6277 119.978 62.6187C119.966 62.6098 119.962 62.6236 119.971 62.6493C119.979 62.6751 119.766 63.6452 119.497 64.8053C119.228 65.9653 119.008 66.9514 119.008 66.9967C119.008 67.0448 119.042 67.118 119.089 67.173C119.167 67.2621 119.183 67.2669 119.408 67.2669C119.538 67.2669 119.65 67.2778 119.657 67.291C119.663 67.3043 119.648 67.3875 119.624 67.4759L119.579 67.6366L118.435 67.645C117.806 67.6496 117.285 67.6454 117.276 67.6354ZM12.4372 60.5816C12.4054 60.5668 12.3458 60.5087 12.305 60.4526C12.1184 60.1966 12.29 59.7162 12.6342 59.5311C12.7109 59.4899 12.8175 59.4561 12.8711 59.4559C13.0855 59.4553 13.2616 59.6585 13.2602 59.9051C13.2579 60.3285 12.7643 60.7344 12.4372 60.5816ZM22.5912 60.5576C22.4711 60.4893 22.3804 60.2724 22.4087 60.121C22.4416 59.9453 22.5249 59.7902 22.6606 59.6524C22.8792 59.4301 23.1562 59.3956 23.3146 59.5708C23.4629 59.7349 23.4801 59.9391 23.367 60.1949C23.2213 60.5243 22.8434 60.701 22.5912 60.5576ZM103.79 60.5816C103.758 60.5668 103.698 60.5087 103.657 60.4526C103.51 60.251 103.58 59.8986 103.814 59.6609C103.99 59.4818 104.206 59.4128 104.368 59.4839C104.471 59.5294 104.583 59.6788 104.602 59.798C104.675 60.2486 104.154 60.7517 103.79 60.5816ZM68.2227 55.7104C67.7875 55.598 67.507 55.4173 67.2203 55.0646C67.005 54.7998 66.8501 54.5081 66.6928 54.0712C66.4969 53.5271 63.9837 47.1993 63.915 47.0771C63.8794 47.0139 63.7996 46.9292 63.7376 46.8889C63.6409 46.8262 63.5934 46.8174 63.4058 46.8272C63.171 46.8395 63.0902 46.8833 62.976 47.0597C62.9188 47.1482 62.9186 47.1629 62.9113 51.3733L62.9041 55.5981H62.1248H61.3455V51.2892C61.3455 47.4752 61.3507 46.9519 61.3898 46.7328C61.5454 45.8632 62.0166 45.3291 62.7917 45.1438C63.0147 45.0905 63.1279 45.0829 63.4894 45.0969C63.9723 45.1157 64.1468 45.1583 64.4561 45.3331C64.8892 45.578 65.2847 46.1425 65.522 46.8545C65.5873 47.0504 68.1123 53.4194 68.2043 53.6203C68.3285 53.8912 68.4715 54.0014 68.7181 54.016C68.9577 54.0301 69.1248 53.941 69.2175 53.7497L69.2798 53.6211V49.4502V45.2794H70.0742H70.8686L70.8604 49.627L70.8521 53.9747L70.7903 54.2268C70.6889 54.6405 70.5721 54.8786 70.3382 55.1483C70.1105 55.4109 69.9033 55.5512 69.5721 55.6668C69.3145 55.7567 68.5024 55.783 68.2217 55.7104H68.2227ZM103.606 55.7104C102.8 55.534 102.293 54.9669 102.027 53.9425C101.994 53.8187 101.68 52.2781 101.328 50.519C100.976 48.7598 100.668 47.2673 100.643 47.2023C100.545 46.9467 100.351 46.8222 100.053 46.8222C99.7911 46.8222 99.5893 46.9381 99.4982 47.1407L99.4345 47.2824V51.4402V55.598H98.6684H97.9022L97.9098 51.2021C97.9182 46.2873 97.9018 46.6814 98.1191 46.1803C98.4654 45.3818 99.3158 44.9625 100.345 45.0829C101.265 45.1907 101.873 45.7076 102.165 46.6308C102.21 46.7734 102.542 48.3756 102.903 50.1913C103.264 52.0069 103.581 53.5503 103.608 53.621C103.698 53.8574 103.923 54.0225 104.154 54.0225C104.42 54.0225 104.65 53.8171 104.732 53.5065C104.757 53.4103 105.068 51.8716 105.422 50.0871C105.776 48.3026 106.104 46.7217 106.15 46.574C106.37 45.8715 106.859 45.341 107.444 45.1687C107.763 45.0749 108.18 45.0419 108.53 45.0829C109.315 45.1748 109.854 45.5496 110.127 46.1929C110.351 46.7219 110.334 46.3114 110.342 51.2181L110.35 55.598H109.584H108.818L108.811 51.4432C108.804 47.3 108.803 47.288 108.745 47.1598C108.714 47.089 108.634 46.9878 108.569 46.9347C108.463 46.8484 108.426 46.8373 108.21 46.8284C108.002 46.8199 107.951 46.8288 107.843 46.8927C107.595 47.0402 107.633 46.8952 106.898 50.5029C106.53 52.3063 106.196 53.9045 106.156 54.0545C105.922 54.9292 105.501 55.4415 104.834 55.6635C104.561 55.7541 103.919 55.7787 103.606 55.7104ZM1.06569 54.6997V53.7979L3.63419 53.7976C5.24641 53.7976 6.26786 53.7851 6.37773 53.7645C6.79838 53.6857 7.08615 53.4574 7.23553 53.0839C7.31059 52.8962 7.31641 52.8539 7.31641 52.4959C7.31641 52.1463 7.30951 52.0932 7.24305 51.9295C7.1048 51.5891 6.86021 51.3689 6.49428 51.2553C6.40886 51.2288 5.87581 51.2096 4.79663 51.1941C3.10168 51.1697 3.00168 51.1604 2.50312 50.98C1.39584 50.5795 0.84559 49.5514 0.907414 47.9985C0.941275 47.1481 1.15571 46.5244 1.57343 46.0613C1.91008 45.6881 2.26313 45.4816 2.80776 45.3393C3.08167 45.2677 3.10871 45.2669 5.6528 45.2555L8.22131 45.244V46.1456V47.0472L5.81986 47.0477C3.24808 47.0482 3.22831 47.0494 2.95498 47.2104C2.78696 47.3093 2.6095 47.5373 2.53689 47.7474C2.48436 47.8994 2.4732 47.9931 2.47256 48.2881C2.47146 48.6333 2.47497 48.6521 2.5692 48.8655C2.72592 49.2202 3.00596 49.4133 3.4741 49.4895C3.58129 49.5069 4.26447 49.5215 4.99227 49.5218C6.34093 49.5225 6.60256 49.5393 7.01961 49.6525C7.53863 49.7933 7.90086 50.0174 8.23615 50.405C8.70917 50.9519 8.9116 51.6794 8.88062 52.721C8.83366 54.3003 8.16639 55.211 6.82862 55.5214C6.61802 55.5703 6.2938 55.5776 3.82909 55.5888L1.06569 55.6014V54.6997ZM13.7687 55.562C11.7583 55.371 10.5837 54.0025 10.3241 51.5487C10.2677 51.0155 10.2678 49.859 10.3241 49.3318C10.4573 48.0899 10.7843 47.191 11.3522 46.5062C11.7452 46.0323 12.1526 45.7365 12.7079 45.522C13.2599 45.3087 13.5065 45.2757 14.6849 45.2568C15.7927 45.239 16.1714 45.262 16.6603 45.3767C17.7713 45.6373 18.5962 46.3461 19.0745 47.4513C19.266 47.8938 19.4484 48.6463 19.5297 49.3297C19.5849 49.7943 19.5766 51.1782 19.5157 51.6544C19.3546 52.9142 18.9985 53.8098 18.3963 54.4702C17.8 55.1242 17.0519 55.4664 16.0033 55.5647C15.5904 55.6034 14.1865 55.6017 13.7684 55.562L13.7687 55.562ZM15.9755 53.7649C16.983 53.6343 17.5786 53.085 17.841 52.0444C17.9642 51.5556 18.0019 51.1797 18.0018 50.4387C18.0018 49.4435 17.9158 48.8913 17.6695 48.3032C17.4455 47.7684 17.035 47.3729 16.5185 47.1941C16.1791 47.0766 15.8638 47.0477 14.9314 47.0486C13.7335 47.0496 13.4668 47.0916 12.9963 47.3531C12.2787 47.7521 11.9251 48.5444 11.8407 49.9426C11.7939 50.7183 11.8587 51.542 12.0121 52.1199C12.1665 52.7023 12.511 53.2108 12.9149 53.4526C13.1585 53.5984 13.5382 53.7267 13.832 53.7624C14.1529 53.8014 15.6805 53.8032 15.9755 53.7649ZM41.1037 51.3227V47.0474H39.7951H38.4865V46.1473V45.2472H41.8833H45.2802V46.1473V47.0474H43.9715H42.6629V51.3227V55.5981H41.8833H41.1037V51.3227ZM46.7837 50.4227V45.2472H47.5633H48.3429V50.4227V55.5981H47.5633H46.7837V50.4227ZM53.7052 55.5629C52.0345 55.404 50.9444 54.4639 50.4614 52.7654C50.2591 52.0541 50.1943 51.4834 50.1952 50.4227C50.1963 49.4847 50.2314 49.0989 50.3764 48.4441C50.73 46.8474 51.5863 45.8147 52.8682 45.439C53.0371 45.3895 53.2689 45.3317 53.3833 45.3105C53.68 45.2557 55.5281 45.2316 55.9677 45.2768C57.0391 45.387 57.8147 45.7789 58.4172 46.5144C58.9213 47.1298 59.2309 47.9212 59.3992 49.0243C59.4734 49.5106 59.5035 50.7597 59.4549 51.3343C59.2328 53.9605 58.0623 55.3665 55.933 55.5647C55.5214 55.603 54.115 55.6018 53.7052 55.5629ZM56.209 53.7095C57.1675 53.4642 57.6615 52.8083 57.8574 51.5206C57.9263 51.0681 57.9249 49.7605 57.855 49.3136C57.637 47.9183 57.0553 47.2423 55.9329 47.0798C55.576 47.0282 53.9767 47.0388 53.6538 47.095C52.4769 47.2998 51.9123 48.0823 51.7652 49.7124C51.7237 50.1714 51.7464 51.1686 51.8073 51.5638C51.9919 52.7622 52.4671 53.4225 53.3251 53.6726C53.6835 53.7771 53.9198 53.7931 54.9555 53.7833C55.8357 53.775 55.9885 53.766 56.209 53.7095ZM72.7889 54.7009V53.8001L75.4688 53.7905C77.9863 53.7815 78.1579 53.7773 78.3018 53.7216C78.6354 53.5925 78.862 53.36 78.9747 53.0312C79.0659 52.765 79.0644 52.2228 78.9716 51.9515C78.8944 51.7254 78.7106 51.4986 78.5174 51.3907C78.2076 51.2178 78.2045 51.2175 76.5198 51.1942C74.8231 51.1707 74.7265 51.1618 74.232 50.9817C73.2029 50.607 72.6722 49.7512 72.6295 48.3975C72.5976 47.3897 72.7846 46.6868 73.2301 46.1394C73.5612 45.7325 73.9562 45.4896 74.531 45.3394C74.8048 45.2679 74.8326 45.2671 77.3621 45.2556L79.9167 45.2441V46.1457V47.0474L77.5291 47.0479C74.9277 47.0484 74.9404 47.0475 74.6479 47.2314C74.4793 47.3373 74.3619 47.4884 74.2674 47.721C74.2025 47.8807 74.195 47.9379 74.195 48.2696C74.195 48.6235 74.199 48.6495 74.2867 48.8551C74.384 49.0833 74.5053 49.2226 74.7033 49.3335C74.9935 49.4962 75.0139 49.4981 76.7147 49.5234C78.4342 49.549 78.5173 49.5567 78.9828 49.7321C80.0565 50.1368 80.615 51.101 80.6117 52.5443C80.6084 54.0003 80.0671 54.9728 79.0391 55.3698C78.4915 55.5813 78.5943 55.5748 75.5523 55.5889L72.7889 55.6018L72.7889 54.7009ZM94.1722 50.4227V45.2472H94.9518H95.7314V50.4227V55.5981H94.9518H94.1722V50.4227ZM112.549 50.4227V45.2472H113.328H114.108V50.4227V55.5981H113.328H112.549V50.4227ZM118.201 51.3227V47.0474H116.892H115.583V46.1473V45.2472H118.98H122.377V46.1473V47.0474H121.068H119.76V51.3227V55.5981H118.98H118.201V51.3227ZM126.122 55.5764C125.001 55.4952 124.165 54.986 123.786 54.1546C123.614 53.7769 123.543 53.4287 123.527 52.8979C123.515 52.5089 123.522 52.379 123.57 52.1131C123.7 51.3878 124.058 50.8372 124.617 50.4996C124.702 50.4484 124.771 50.3973 124.771 50.386C124.771 50.3746 124.743 50.3571 124.709 50.347C124.587 50.3112 124.217 50.0016 124.065 49.8081C123.879 49.5701 123.704 49.1941 123.625 48.8567C123.538 48.4899 123.538 47.6276 123.626 47.2563C123.846 46.3211 124.391 45.7164 125.273 45.4275C125.758 45.2687 125.739 45.2697 128.454 45.2564L131.008 45.2438V46.1456V47.0474H128.654C126.071 47.0474 126.046 47.049 125.719 47.2398C125.323 47.4708 125.119 47.9826 125.19 48.5664C125.257 49.107 125.524 49.4123 126.043 49.5392C126.2 49.5777 126.641 49.5859 128.593 49.5863L130.953 49.5868V50.4065V51.2262L128.579 51.2267C126.006 51.2274 125.987 51.2285 125.683 51.4035C125.276 51.6381 125.072 52.1438 125.156 52.7101C125.236 53.2483 125.468 53.5462 125.938 53.7139C126.116 53.7778 126.194 53.78 128.579 53.7901L131.036 53.8005V54.6992V55.598L128.649 55.5922C127.335 55.589 126.198 55.582 126.122 55.5764ZM133.579 55.5658C133.346 55.5101 133.193 55.363 133.12 55.1248C133.066 54.9478 133.065 45.9424 133.119 45.7357C133.164 45.5618 133.328 45.3698 133.473 45.3205C133.552 45.2935 134.15 45.2812 135.588 45.2772C137.766 45.271 137.82 45.2745 138.405 45.4573C139.666 45.8513 140.51 46.9145 140.834 48.5163C140.936 49.0247 140.979 49.4511 140.995 50.1494C141.014 50.9295 140.979 51.5032 140.876 52.0942C140.568 53.8637 139.728 54.9754 138.386 55.3874C137.788 55.5712 137.726 55.5757 135.63 55.585C134.566 55.5897 133.643 55.581 133.579 55.5658H133.579ZM137.426 53.7649C138.434 53.6343 139.029 53.085 139.292 52.0444C139.414 51.5598 139.452 51.1792 139.453 50.4387C139.455 49.7397 139.427 49.4064 139.33 48.9504C139.142 48.0672 138.748 47.5152 138.116 47.2503C137.696 47.0743 137.667 47.0714 136.154 47.0566C134.753 47.0428 134.743 47.0432 134.685 47.1098L134.627 47.1769L134.634 50.4418C134.642 53.6315 134.643 53.7077 134.696 53.7523C134.741 53.7901 134.959 53.7979 135.963 53.7977C136.63 53.7977 137.288 53.7828 137.426 53.7649ZM23.9386 55.529C22.6622 55.3404 21.8085 54.5664 21.4926 53.3115C21.352 52.7527 21.3552 52.8457 21.3432 48.9198L21.3321 45.2472H22.1123H22.8924L22.901 48.8234C22.909 52.197 22.9124 52.4096 22.9608 52.5764C23.1468 53.2175 23.4912 53.5588 24.0979 53.7034C24.3378 53.7605 24.4942 53.765 26.2844 53.7654L28.2125 53.7657V54.6658V55.5659L26.173 55.5618C25.0513 55.5596 24.0458 55.5448 23.9386 55.529ZM31.5954 55.5197C30.9312 55.3941 30.4549 55.1347 30.1001 54.7053C29.8013 54.3435 29.6146 53.9222 29.4854 53.3178C29.4274 53.0465 29.4264 52.9857 29.4172 49.1449L29.4079 45.2472H30.2023H30.9968V48.8831C30.9968 52.806 30.9932 52.7033 31.1412 53.0382C31.2273 53.233 31.4515 53.4877 31.6216 53.5838C31.9591 53.7746 32.0193 53.7819 33.266 53.7819C34.2705 53.7819 34.4289 53.7751 34.5852 53.7252C35.0628 53.5728 35.334 53.2835 35.4897 52.7601C35.5488 52.5614 35.5491 52.5412 35.557 48.9038L35.5649 45.2472H36.3157H37.0666V49.0101C37.0666 51.5402 37.0567 52.8488 37.0365 53.0042C36.9265 53.8503 36.6654 54.4387 36.1999 54.8898C35.9215 55.1596 35.584 55.3382 35.0897 55.4774C34.8674 55.54 34.7615 55.5446 33.3356 55.5529C32.1858 55.5596 31.7642 55.5516 31.5954 55.5197ZM88.4227 55.529C87.0721 55.3294 86.1893 54.4665 85.9295 53.092C85.8301 52.5663 85.8198 52.1521 85.8196 48.6627V45.2472H86.5992H87.3788V48.7591C87.3799 52.608 87.3754 52.509 87.5453 52.8978C87.665 53.1716 87.8619 53.3906 88.1093 53.5253C88.5339 53.7565 88.4234 53.7465 90.6707 53.7581L92.6963 53.7685V54.6672V55.5659L90.6568 55.5619C89.5351 55.5596 88.5296 55.5449 88.4224 55.529L88.4227 55.529ZM116.614 21.1381V1.88294H121.86C127.246 1.88294 127.534 1.88872 128.391 2.01395C132.854 2.666 136.047 5.88624 137.117 10.8151C137.561 12.8564 137.631 15.2311 137.311 17.361C136.786 20.8611 135.205 23.7121 132.844 25.415C132.469 25.6852 131.574 26.1999 131.217 26.3497C131.079 26.4076 130.963 26.4577 130.958 26.4611C130.951 26.4662 139.449 39.6387 139.827 40.2085L139.949 40.3933H136.999H134.05L129.849 33.8847L125.649 27.376L123.734 27.3751L121.82 27.3742V33.8837V40.3932H119.217H116.614V21.1381ZM127.431 21.9125C128.371 21.7877 129.079 21.5707 129.748 21.2023C130.35 20.8703 130.772 20.5159 131.246 19.9413C131.615 19.4947 131.859 19.0944 132.093 18.5504C132.515 17.5701 132.736 16.5009 132.787 15.1932C132.874 12.945 132.475 11.0814 131.624 9.76849C131.397 9.41736 130.924 8.86608 130.646 8.62917C129.831 7.93224 128.842 7.52624 127.549 7.3577C127.177 7.30923 126.794 7.30214 124.479 7.30089L121.834 7.29947L121.827 14.5965C121.823 18.6099 121.826 21.9131 121.834 21.9369C121.846 21.9731 122.291 21.9777 124.5 21.9649C126.232 21.9549 127.249 21.9367 127.431 21.9125ZM1.03948 40.3371C1.04058 40.3238 3.86999 33.0223 7.3275 24.1116C10.785 15.2008 13.6089 7.89938 13.6028 7.88612C13.5967 7.87286 10.5841 7.86201 6.90808 7.86201C1.46876 7.86201 0.227005 7.8543 0.238208 7.82062C0.245771 7.79786 0.640813 6.47065 1.11608 4.87127C1.59135 3.27189 1.98878 1.93799 1.99926 1.90705C2.01736 1.85361 2.54185 1.85079 12.4703 1.85079C18.2189 1.85079 22.9223 1.85674 22.9223 1.86401C22.9223 1.87127 20.0853 9.17996 16.6177 18.1055L10.3131 34.3339L16.6196 34.342C22.6085 34.3497 22.9252 34.3529 22.91 34.4063C22.9011 34.4372 22.4142 35.786 21.8277 37.4038L20.7616 40.3451L10.8997 40.3532C5.47568 40.3576 1.03858 40.3504 1.03948 40.3371ZM22.5478 40.2406C22.5719 40.1743 25.8309 31.137 29.79 20.1577C33.749 9.17837 36.9976 0.175943 37.009 0.152287C37.0229 0.123365 37.0486 0.160222 37.0873 0.264796C37.2584 0.726611 51.4891 40.3297 51.4891 40.344C51.4891 40.3534 50.2078 40.3611 48.6418 40.3611H45.7944L41.4235 27.7125C39.0195 20.7557 37.041 15.0625 37.0268 15.061C37.0126 15.0594 35.0339 20.7513 32.6296 27.7096L28.2582 40.3611H25.3811H22.5039L22.5478 40.2406ZM30.7281 40.2551C30.7492 40.1968 32.1737 36.3119 33.8935 31.6221C35.9936 25.8955 37.0281 23.1104 37.0433 23.1419C37.0754 23.2081 43.3338 40.2365 43.3512 40.3049C43.3648 40.3583 43.0506 40.3611 37.0276 40.3611H30.6897L30.7281 40.2551ZM52.9657 20.23C52.9668 4.39786 52.9738 0.110088 53.0005 0.151434C53.0191 0.180349 56.5486 6.25202 60.8438 13.644C66.8999 24.0668 68.6604 27.0751 68.6856 27.0444C68.7035 27.0225 72.2226 20.9726 76.5058 13.6C80.789 6.22741 84.3047 0.181556 84.3185 0.164759C84.3335 0.14659 84.3437 8.28168 84.3437 20.2477V40.3611H81.7265H79.1092L79.1081 30.1469C79.107 20.3933 79.105 19.9357 79.0582 20.0003C79.0313 20.0375 76.6805 24.0772 73.8343 28.9772L68.6593 37.8865L68.478 37.5728C67.6284 36.103 58.2392 20.0182 58.2097 19.982C58.177 19.942 58.1712 21.4611 58.1712 30.148V40.3611H55.5679H52.9646L52.9657 20.23ZM86.6079 40.1924C86.6431 40.0996 89.9095 31.0444 93.8666 20.0697C97.8237 9.0951 101.07 0.126493 101.08 0.139501C101.1 0.165258 115.498 40.2129 115.521 40.3049C115.533 40.3582 115.385 40.3611 112.684 40.3604L109.834 40.3596L105.495 27.7995C103.109 20.8915 101.138 15.1888 101.115 15.1269C101.083 15.0395 101.068 15.0252 101.05 15.0626C101.037 15.0891 99.0847 20.7307 96.7113 27.5994C94.3379 34.4681 92.3746 40.1494 92.3484 40.2245L92.3007 40.3612H89.4223H86.544L86.6079 40.1924ZM94.7938 40.1924C94.829 40.0996 96.2538 36.2161 97.9601 31.5624C99.6663 26.9087 101.07 23.1115 101.08 23.1242C101.094 23.1425 107.316 40.0984 107.385 40.3049C107.403 40.3584 107.09 40.3611 101.067 40.3611H94.7298L94.7938 40.1924ZM68.0211 14.5799C66.0719 14.3217 64.4437 13.1792 63.3735 11.3186C62.1358 9.1668 61.9931 6.35116 63.0038 4.02663C63.54 2.79348 64.3732 1.7574 65.4105 1.03384C67.0781 -0.129295 69.1921 -0.324568 71.007 0.516902C72.9926 1.43755 74.4418 3.43954 74.8615 5.84174C75.0316 6.81507 75.026 7.93111 74.8463 8.87459C74.3949 11.2453 72.9286 13.2264 70.9691 14.1132C70.5893 14.2851 70.0373 14.4556 69.6148 14.5316C69.2728 14.5931 68.3352 14.6215 68.0211 14.5799Z"
            fill="white"
          />
        </g>
        <defs>
          <clipPath id="clip0_171_6">
            <rect width="141" height="70" fill="white" />
          </clipPath>
        </defs>
      </svg>